<?xml version="1.0" encoding="UTF-8"?><svg id="Capa_2" xmlns="http://www.w3.org/2000/svg" viewBox="0 0 600.13 414.77"><defs><style>.cls-1{fill:#44699e;stroke-width:0px;}</style></defs><g id="Capa_1-2"><path class="cls-1" d="M481.04,208.14c-.02,97.92-78.58,180.13-180.57,180.13-101.95,0-180.53-81.96-180.71-180.6-.17-98.53,78.79-181,180.92-180.92,100.99.08,180.94,81.92,180.36,181.39ZM301.17,72.53c-73.98-.85-135.81,58.95-135.91,134.77-.11,77.2,62.95,134.79,133.98,135.35,74.54.59,136.38-59.73,136.44-134.93.05-75.91-61.74-135.39-134.51-135.19Z"/><path class="cls-1" d="M519.17,386.76c.94-33.11,1.71-66.23,2.89-99.33.69-19.13,1.41-38.25,1.86-57.39.51-21.96,1.29-43.92,2.03-65.88.11-3.31-.56-5.67-4.03-7.07-19.64-7.9-30.32-23.3-34.9-43.22-6.58-28.6-3.37-56,12.03-81.35,6.91-11.38,16.13-20.66,27.67-27.6,10.54-6.35,20.76-6.02,31.02.47,18.89,11.94,31.14,29.03,37.33,50.19,7.58,25.93,7.29,51.68-5.25,76.3-6.12,12.01-15.53,20.75-28.37,25.32-3.27,1.17-4.27,2.71-3.9,6.22,1.12,10.77.7,21.61,1.16,32.43,1.22,28.77,1.41,57.59,2.48,86.37,1.19,32.11,2.36,64.21,3.06,96.33.12,5.64,1.26,11.25.25,16.91-2.28,12.78-12.09,20.19-25.5,19.22-10.77-.78-19.68-10.7-20.11-22.44-.07-1.83,0-3.66,0-5.5h.31ZM498.39,109.99c.32,15.06,14.64,33.3,25.53,33.4-5.45-4.49-10.28-9.2-14.33-14.69-4.04-5.48-7.78-11.13-11.2-18.71Z"/><path class="cls-1" d="M16.95,53.61c0,15.16-.01,30.33.02,45.49,0,1.82-.05,3.72.4,5.46.72,2.8,2.63,4.58,5.66,4.85,3,.27,5.16-1.03,6.5-3.68,1-1.98,1.18-4.13,1.22-6.32.37-18.98.73-37.97,1.15-56.95.28-12.32.74-24.63.93-36.95.05-3.67,1.49-5.14,5.09-4.97,3.32.15,6.67-.62,6.86,4.69.45,12.65.34,25.3,1,37.96.95,18.12.93,36.29,1.39,54.44.06,2.31.33,4.66.84,6.91.64,2.87,2.5,4.69,5.57,4.86,3.32.18,5.39-1.65,6.29-4.63.57-1.88.76-3.92.81-5.9.79-30.63,1.53-61.27,2.28-91.9.14-5.7,5.18-8.64,10.2-5.97,2.05,1.09,1.77,3.05,1.8,4.83.16,9.82.44,19.64.8,29.46.78,21.14.93,42.3,1.34,63.45.02.83,0,1.67.08,2.5.53,5.55,3.18,8.44,7.48,8.18,4.05-.24,6.17-3.09,6.18-8.65.06-24,.08-47.99.11-71.99,0-7.67.17-15.33-.02-23-.17-6.95,4.94-4.56,8.43-5.08,4.16-.62,4.53,2.01,4.65,5.19.99,27.95,1.8,55.91,3.21,83.84.52,10.38,1.24,20.64-1.79,30.71-4.9,16.3-15.36,27.04-32.15,30.94-3.28.76-4.49,2.08-4.32,5.34.97,18.78,1.84,37.57,2.75,56.36.43,8.81.85,17.62,1.29,26.43,1.6,32.25,3.25,64.5,4.8,96.75.84,17.46,1.83,34.93,2.13,52.4.23,13.43-10.32,24.25-23.93,25.69-12.36,1.31-25.01-7.98-27.65-20.57-1.24-5.92-.54-11.97-.23-17.94.78-15.12,1.96-30.23,2.58-45.36,1.1-26.78,2.37-53.54,3.92-80.3.99-17.12,1.48-34.26,2.25-51.39.61-13.63,1.23-27.27,2.01-40.89.23-3.94-.78-5.74-5.14-6.65-17.24-3.57-30.34-19.21-32.96-37.91-1.94-13.85.42-27.59.43-41.39,0-12.64,1.07-25.27,1.6-37.91.41-9.65.86-19.3,1.01-28.95C3.88.14,7.08.54,10.31.57c3.18.03,6.42-.53,6.36,4.55-.18,16.16-.07,32.32-.07,48.48.11,0,.23,0,.34,0ZM11.72,117.29c-.67,12,11.47,23.9,24.07,23.33-11.67-4.5-19.17-12.51-24.07-23.33Z"/><path class="cls-1" d="M421.08,208.22c.12,64.68-52.08,120.44-121.34,120.11-67.5-.32-121.13-55.18-119.97-123.03,1.1-64.21,52.34-118.58,120.89-118.57,70.13,0,121.42,57.56,120.43,121.5ZM296.11,306.1c-50.55-12.08-82.02-43.33-94.37-93.91-6.77,60.77,52.29,102.46,94.37,93.91Z"/></g></svg>