<?xml version="1.0" encoding="UTF-8"?><svg id="Capa_2" xmlns="http://www.w3.org/2000/svg" viewBox="0 0 190.02 163.64"><defs><style>.cls-1{fill:#44699e;stroke-width:0px;}</style></defs><g id="Capa_1-2"><path class="cls-1" d="M91.03,109.5c16.29-2.56,32.06-2.13,47.8-1.85,11.97.21,23.85,1.56,35.49,4.53,11.33,2.89,14.72,6.99,15.58,18.73.46,6.21-.42,12.25-2.11,18.22-1.12,3.96-4.09,5.89-7.52,7.4-9.45,4.15-19.65,4.87-29.68,5.86-16.87,1.67-33.83,1.67-50.73.06-8.42-.8-16.79-2.09-25-4.29-7.52-2.02-12.28-6.3-12.93-14.4-.34-4.16-1.68-4.64-5.02-1.84-7.62,6.41-15.45,12.56-24.45,17.09-5.48,2.76-10.1,2.56-15.26-1.08-6.1-4.31-11.15-9.3-15.04-15.66-2.58-4.22-2.84-8.25-.86-12.75,4.41-10.03,11.19-18.41,18.22-26.6,11.92-13.89,24.87-26.75,39.21-38.14,6.63-5.27,13.51-10.22,21.61-13.17,3.55-1.29,6.71-.97,10,.9,7.73,4.4,13.49,10.61,17.94,18.25,1.93,3.32,2.11,6.39.82,9.95-3.2,8.78-9.36,15.61-14.6,23.07-1.11,1.58-2.78,2.81-3.48,5.73ZM103.88,75.87c-1.57-5.17-5.4-9.83-10.25-13.79-2.3-1.88-3.73-1.43-4.79,1.34-1.74,4.53-4.49,8.49-7.26,12.44-9.28,13.26-20.52,24.79-31.93,36.17-9.8,9.77-20.86,17.97-32.26,25.75-2.56,1.75-7.78,1.21-7.47,4.94.25,3.01,4.24,5.25,6.94,7.46.77.63,1.71,1.05,2.45,1.71,4.19,3.73,8.22,3.55,13.1.74,10.75-6.2,20.11-14.09,29.15-22.41,15.33-14.11,29.29-29.42,40.24-47.27,1.13-1.84,2.17-3.76,2.08-7.07ZM130.98,157.57c7.44.13,20.87-.64,34.09-3.19,16.83-3.24,18.75-2.43,18.77-21.96,0-.33-.02-.66-.02-1,.05-2.47-1.02-3.38-3.41-2.46-17.57,6.76-36.19,6.71-54.48,7.22-17.35.48-34.84-.79-51.73-5.78-3.2-.95-5.24.1-6.48,2.85-2.91,6.47,2.03,17.21,8.9,19.14,15.81,4.45,32.05,5.02,54.37,5.17ZM8.08,135.27c2.84-.75,5.44-2.24,7.93-3.88,12.51-8.25,24.06-17.66,34.46-28.49,11.38-11.85,22.82-23.66,31.05-38.06,1.28-2.24,4.6-5.1,2.06-7.31-2.19-1.91-5.16,1.13-7.47,2.57-25.45,15.89-45.43,37.51-63.4,61.16-2.48,3.27-4.16,7.17-6.08,10.84-.72,1.38-1.17,2.98,1.45,3.17ZM122.9,130.69c0-.41.02-.83.03-1.24,8.29,0,16.63.54,24.87-.14,10.06-.83,20.23-1.66,29.78-5.49,1.15-.46,3.03-.4,2.93-2.13-.09-1.51-1.81-1.88-3.02-2.21-4.96-1.35-9.91-3.07-14.98-3.69-21.48-2.62-43.05-3.49-64.59-.98-6.53.76-13.8-.06-18.79,6.16-2.93,3.64-2.95,4.13,1.75,5.19,13.84,3.1,27.99,3.26,42.02,4.52Z"/><path class="cls-1" d="M72.8,3.98c.7-2.67-.9-4.31-3.62-3.76-3.99.8-7.85.56-11.81-.14-2.65-.47-4.4,1.06-3.48,3.81,1.27,3.8,1.16,7.41.08,11.18-.74,2.59.36,4.59,3.22,4.04,4.13-.79,8.14-1.49,11.7.15,2.92.04,4.58-1.06,3.93-3.57-1.04-3.96-1.05-7.75-.01-11.72ZM69.28,13.45c.41,1.58-.63,2.27-2.47,2.25-2.24-1.03-4.76-.59-7.36-.09-1.8.34-2.49-.92-2.03-2.54.68-2.38.75-4.65-.05-7.04-.58-1.73.52-2.69,2.19-2.4,2.5.44,4.92.59,7.44.09,1.72-.34,2.72.69,2.28,2.37-.66,2.5-.65,4.88,0,7.37Z"/><path class="cls-1" d="M161.22,71.36c2.29-1.53,2.18-3.82-.22-5.22-3.52-2.04-6.25-4.78-8.76-7.93-1.67-2.1-3.99-2.12-5.13.55-1.56,3.69-4.03,6.32-7.34,8.43-2.27,1.45-2.77,3.68-.27,5.16,3.62,2.14,7.08,4.27,8.67,7.86,2.17,1.96,4.13,2.24,5.3-.07,1.85-3.65,4.34-6.5,7.75-8.79ZM152.32,76.13c-.74,1.46-1.97,1.28-3.34.05-1-2.26-3.18-3.6-5.45-4.95-1.57-.93-1.26-2.33.17-3.25,2.08-1.33,3.64-2.99,4.62-5.31.71-1.68,2.18-1.67,3.23-.35,1.58,1.98,3.3,3.7,5.51,4.99,1.51.88,1.58,2.32.14,3.28-2.15,1.44-3.72,3.23-4.88,5.53Z"/></g></svg>