<?xml version="1.0" encoding="UTF-8"?><svg id="Capa_2" xmlns="http://www.w3.org/2000/svg" viewBox="0 0 240.33 391.57"><defs><style>.cls-1{fill:#44699e;stroke-width:0px;}</style></defs><g id="Capa_1-2"><path class="cls-1" d="M126.94,296.3c3.11-2.64,5.16-4.83,7.62-6.4,8.71-5.54,17.45-11.06,26.4-16.2,4.12-2.36,5.77-4.88,4.92-9.87-3.63-21.36-6.27-42.9-10.39-64.17-2.99-15.44-12.11-26.45-28.35-30.94-1.87,6.62-3.47,12.83-5.37,18.96-3.59,11.56-10.02,20.85-21.36,26.16-13.54,6.35-21.12,17.06-22.48,31.92-2.02,22.1-3.94,44.2-5.41,66.34-.16,2.43,2.31,6.15,4.59,7.45,8.96,5.1,18.37,9.4,27.53,14.15,2.85,1.48,5.43,3.46,8.13,5.21l-.05,2.52c-3.94.88-7.92,2.67-11.8,2.48-19.07-.92-38.13-2.26-57.17-3.66-7.98-.59-15.95-1.42-23.85-2.66-3.84-.6-7.49-2.4-11.23-3.66l-.11-2.47c2.82-1.45,5.51-3.28,8.47-4.29,10.01-3.39,20.26-6.14,30.12-9.91,2.66-1.02,5.83-4.66,6.09-7.35,2.07-21.58,3.72-43.21,5.05-64.85.96-15.74-5.62-27.91-18.83-36.65-12.21-8.09-15.81-20.99-16.53-34.3-.68-12.55-.72-25.51,1.67-37.76,4.89-25.03,11.3-49.79,17.7-74.5,3.17-12.24,7-14.72,19.81-15.13,6.43-.2,12.89.37,19.33.68,4.34.21,8.68.58,14.11.96.38-8.43.98-16.31,1.02-24.18.04-8.39,3.94-13.44,11.77-16.08C125.39,2.34,142.83-.58,160.86.1c5.71.21,10.29,2.4,12.27,7.8,13.26,36.3,28.58,72.09,30.82,111.37.96,16.9-3.12,31.93-17.51,43.3-8.31,6.57-13.34,16.17-11.89,27.34,3.13,24.28,6.68,48.5,10.51,72.68.34,2.14,3.74,4.74,6.2,5.42,10.68,2.96,21.56,5.2,32.32,7.9,2.56.64,4.94,2.01,7.66,3.16-7.7,9.39-90.85,23.42-104.28,17.23ZM101.83,339.95c.2-.8.4-1.6.6-2.41-9.22-4.5-18.34-9.22-27.69-13.43-5.17-2.33-7.47-5.64-7.03-11.36,1.76-22.63,2.96-45.31,5.11-67.9,1.32-13.8,7.6-25.1,20.68-31.55,15.71-7.76,23.3-21.33,26.64-37.73,2.67-13.12-1-16.47-14.51-15.57-25.93,1.74-51.9,5.75-78.43-.37-1.15,19.28,2.26,36.35,18.53,48.44,12.71,9.44,18.35,21.98,17.25,37.58-1.48,20.84-3.55,41.65-4.6,62.51-.44,8.74-3.83,12.94-12.31,14.84-9.31,2.09-18.32,5.55-27.46,8.41.14.66.27,1.32.41,1.98,27.61,2.18,55.21,4.37,82.82,6.55ZM127.59,116.07c0,13.2.54,26.87-.25,40.46-.35,5.92,1.8,8.81,6.52,10.49,16.48,5.87,24.19,18.37,26.81,34.81,3.29,20.62,6.27,41.3,9.91,61.86,1.19,6.7-.58,10.65-6.49,13.84-8.92,4.82-17.5,10.28-26.23,15.46.26.73.53,1.45.79,2.18,27.26-4.43,54.53-8.86,81.79-13.29-.03-.74-.05-1.47-.08-2.21-9.94-2.24-19.82-4.86-29.85-6.6-6.72-1.17-9.51-4.52-10.5-11.12-2.49-16.56-5.15-33.13-8.58-49.52-4.77-22.84-1.49-42.18,17.16-58.82,13.54-12.07,11.46-29.59,10.1-44.2-24.44,2.29-47.92,4.48-71.11,6.65ZM198.3,96.03c-9.43-28.32-18.96-56.95-27.98-84.05-23.82,3.88-45.58,7.42-69.19,11.26,0,5.48.4,12.41-.12,19.28-.42,5.61,1.82,7.92,7.06,8.68,8.27,1.2,12.54,6.1,13.35,14.53.95,9.96,2.43,19.88,3.74,30.31h73.15ZM26.64,146.64h80.75c-12.93-27-9.83-54.49-11.52-80.11-15.36-2.71-29.49-5.34-43.68-7.47-1.44-.22-4.33,2.3-4.84,4.04-3.94,13.33-7.73,26.73-11.04,40.23-3.54,14.44-6.5,29.02-9.66,43.3ZM125.8,100.82c-.89,9-.89,9.16,6.26,9.25,7.99.1,16.03.41,23.95-.38,13.06-1.3,26.04-3.41,39.05-5.18-.09-.82-.17-1.63-.26-2.45-22.69-6.97-45.62-4.01-69-1.24ZM29.16,152.1l.12,3.08c27.07,7.41,54.18,2.31,81.65-.94-2.04-2.34-4.41-4.2-6.83-4.25-15.92-.33-31.85-.57-47.76-.24-9.07.19-18.12,1.53-27.18,2.35ZM101.49,65.14v35.57c6.77-1.4,12.45-2.58,18.59-3.85-1.43-11.55-2.76-22.33-4.18-33.79-5.52.79-9.75,1.4-14.41,2.07ZM101.83,110.83c2.58,9.98,5,18.76,7.1,27.62,1.72,7.26,5.84,11.08,14.58,10.59-.64-10.59-1.13-21.08-2.05-31.52-.13-1.47-2.13-3.6-3.63-3.98-4.63-1.18-9.43-1.66-16-2.71ZM103.77,15.4c17.61,4.09,53.58-2.54,59.98-10.71-20.66-1.49-40.34.01-59.98,10.71ZM53.06,51.94c7.83,6.88,37.7,11.09,42.64,7.2-.15-1.94-.32-4.17-.55-7.2h-42.09ZM121.17,100.68c-6.78,1.46-11.49,2.47-16.19,3.48,0,.92-.02,1.84-.02,2.77,4.76.6,9.51,1.36,14.28,1.54.41.02.96-3.75,1.93-7.79ZM113.71,57.73c-4.69-1.57-8.46-2.83-12.86-4.3.97,8.2,3.3,8.86,12.86,4.3Z"/><path class="cls-1" d="M233.76,70.11c2.35,3.13,6.09,6.07,6.55,9.45.28,2.08-4.8,7.1-6.82,6.77-2.95-.47-6.72-4.22-7.47-7.24-.6-2.41,2.8-5.81,4.42-8.77,1.11-.07,2.21-.15,3.32-.22Z"/><path class="cls-1" d="M30.2,240.81c-8.07-.6-10.97-3.55-10.91-9.08.05-5.02,2.21-8.61,7.74-8.28,5.27.32,9.16,3.63,8.51,8.81-.43,3.39-3.91,6.4-5.34,8.55ZM27.13,238.96c2.01-3.12,4.31-5.14,3.98-6.54-.46-1.96-2.89-3.45-4.47-5.14-1.29,1.67-3.53,3.3-3.61,5.03-.08,1.7,2.03,3.5,4.1,6.65Z"/><path class="cls-1" d="M214.36,167.19c2.08,2.74,5.66,5.41,5.77,8.23.09,2.26-4.01,4.69-6.25,7.05-2.32-2.27-5.98-4.24-6.56-6.89-.51-2.31,2.44-5.39,3.86-8.13,1.06-.09,2.11-.18,3.17-.27Z"/><path class="cls-1" d="M121.96,270.14c-4.67,3.02-7.58,6.38-9.94,6.02-2.45-.37-6.12-4.4-6.03-6.7.1-2.36,4.02-6.22,6.43-6.34,2.43-.13,5.06,3.52,9.53,7.02Z"/><path class="cls-1" d="M225.79,57.73c-1.51,6.99-4.38,9.23-9.32,9.12-5.47-.12-7.87-3.39-8.04-8.44-.17-4.93,2.51-8.74,7.31-7.66,3.69.83,6.73,4.54,10.06,6.98ZM216.75,64.68c1.78-2.54,4.06-4.78,3.67-5.41-1.17-1.92-3.36-3.21-5.15-4.74-1.12,1.46-3.36,3.15-3.12,4.32.38,1.81,2.45,3.27,4.59,5.83Z"/><path class="cls-1" d="M13.45,261.68c-2.62-4.94-5.36-7.82-5.24-10.59.09-2.2,3.66-4.26,5.69-6.38,2.26,2.67,5.63,5.07,6.35,8.11.42,1.8-3.35,4.58-6.8,8.86Z"/><path class="cls-1" d="M15.5,210.2c-4.44,3.18-7.28,6.67-9.15,6.21-2.61-.65-5.17-3.96-6.32-6.73-.4-.95,3.61-5.34,5.43-5.23,2.77.17,5.37,2.89,10.04,5.75Z"/><path class="cls-1" d="M26.42,16.89c-4.86,3.05-7.47,5.78-10.33,6.09-1.71.19-3.83-3.42-5.76-5.32,2.43-2.12,4.58-5.16,7.38-6,1.67-.5,4.38,2.48,8.71,5.23Z"/><path class="cls-1" d="M228.84,105.38c-4.15,2.98-7.06,6.3-8.39,5.76-2.67-1.09-5.12-4.01-6.31-6.76-.43-.98,3.44-5.46,4.66-5.19,2.92.64,5.42,3.15,10.04,6.19Z"/><path class="cls-1" d="M105.72,251.08c-2.34,1.3-4.93,3.94-6.95,3.56-2.25-.43-5.34-3.49-5.5-5.61-.14-1.75,3.45-5.36,5.36-5.33,2.43.03,4.82,2.88,7.23,4.52-.04.96-.09,1.91-.13,2.87Z"/><path class="cls-1" d="M231.98,154.63c2.26,4.42,4.61,6.94,4.38,9.19-.19,1.81-3.49,3.3-5.42,4.93-1.74-2.11-4.57-4.08-4.87-6.38-.23-1.72,2.8-3.87,5.91-7.74Z"/><path class="cls-1" d="M39.16,34.54c-2.62-3.53-5.5-5.75-5.24-7.49.3-1.93,3.3-4.34,5.46-4.74,1.34-.25,4.68,2.86,4.65,4.43-.03,2.1-2.45,4.16-4.88,7.8Z"/><path class="cls-1" d="M19.02,63.78c-3.66,2.3-5.98,4.88-7.68,4.53-1.98-.41-3.42-3.39-5.1-5.26,2.01-1.47,3.89-3.78,6.08-4.12,1.47-.23,3.37,2.31,6.7,4.85Z"/><path class="cls-1" d="M238.45,198.03c-2.98,2.14-5.37,4.88-6.47,4.44-2.06-.83-4.09-3.32-4.66-5.51-.25-.96,3.12-4.02,4.83-4.01,1.73,0,3.45,2.63,6.3,5.08Z"/><path class="cls-1" d="M207.55,390.28c-.86.43-1.73.86-2.59,1.29-.15-.59-.29-1.18-.44-1.77.9-.18,1.79-.35,2.69-.53.11.34.23.68.34,1.02Z"/><path class="cls-1" d="M111.81,181.86c.53,13.81-13.78,25.09-32.27,27.16-22.81,2.54-41.08-8.27-44.55-27.04,8.62,14.7,21.01,22.85,38.19,22.78,16.76-.06,29.56-7.28,38.63-22.9Z"/><path class="cls-1" d="M131.41,157.66c28.22,5.32,51.14,1.43,60.92-29.03,2.97,8.53-3.56,20.64-14.94,28.47-12.86,8.84-35.62,9.7-45.98.57Z"/><path class="cls-1" d="M167.5,20.53c5.29,17.43,10.59,34.86,15.88,52.29-.93.3-1.86.59-2.79.89-5.38-17.38-10.76-34.76-16.14-52.14,1.02-.35,2.03-.69,3.05-1.04Z"/><path class="cls-1" d="M35.38,126.8c5.24-19.52,10.48-39.03,15.72-58.55,1.3.36,2.59.72,3.89,1.09-5.53,19.44-11.06,38.88-16.59,58.31-1-.28-2.01-.57-3.01-.85Z"/></g></svg>