<?xml version="1.0" encoding="UTF-8"?><svg id="Capa_2" xmlns="http://www.w3.org/2000/svg" viewBox="0 0 811.53 734.05"><defs><style>.cls-1{fill:#44699e;stroke-width:0px;}</style></defs><g id="Capa_1-2"><path class="cls-1" d="M811.53,356.33c-4.24.09-7.97-1.18-11.65-2.39-9.94-3.24-19.9-6.37-29.74-9.96-5.47-1.99-11.46-3.21-17.17-4.92-36.08-10.84-72.86-18.27-110.12-23.62-23.87-3.43-47.86-4.65-71.91-5.78-20.52-.97-40.95.36-61.39,1.23-13.12.56-26.16,2.68-39.28,3.31-8.38.41-16.42,3.85-25.09,2.23,13.44-5.26,27.38-8.28,41.4-10.86,12.08-2.22,24.2-4.2,36.44-5.48,35.89-3.75,71.77-3.92,107.73-.75,25.24,2.22,50.21,6,74.75,12.18,31.96,8.04,63.21,18.17,92.29,34.07,5.8,3.17,11.74,7.75,13.76,10.74Z"/><path class="cls-1" d="M405.92,350.36c17.04,35.56,29.11,72.8,38.94,111,9.94,38.61,16.91,77.61,20.1,117.27,3.18,39.48,4.33,78.98-3.25,118.45-3.47-1-2.96-3.15-3.26-4.81-2.44-13.65-2.84-27.5-3.49-41.28-1.41-30.11-4.35-60.08-6.86-90.1-1.4-16.78-4.39-33.35-6.55-50.03-2.27-17.57-6.34-34.92-9.84-52.33-2.8-13.91-5.77-27.78-8.95-41.6-1.48-6.45-4.44-12.64-5.28-19.13-.94-7.25-4.07-13.69-5.74-20.62-2.13-8.84-4.62-17.59-6.96-26.38.38-.15.75-.3,1.12-.46Z"/><path class="cls-1" d="M364.12,293c-3.09.53-5.6-1.28-8.21-2.39-35.72-15.27-72.91-22.95-111.81-21.57-23.62.84-46.43,5.88-68.89,13.15-21.65,7.01-41.04,18.33-59.83,30.62-13.41,8.77-25.83,19.08-36.81,30.95-5.64,6.1-11.61,11.9-17.56,17.71-1.18,1.15-2.54,3.46-4.43,2.19-1.95-1.31-.44-3.32.39-4.91,9.36-18.06,22.25-33.38,37.36-46.78,10.1-8.96,20.63-17.51,32.64-23.89,12.41-6.59,24.43-14.04,37.82-18.63,3.25-1.11,6.46-2.84,10.15-1.85.59.16,1.4.08,1.94-.21,17.72-9.6,37.31-10.07,56.65-11.17,14.13-.8,28.3-.14,42.34,2.13,20.44,3.31,40.42,8.26,59.28,16.96,9.48,4.37,18.71,9.29,27.4,15.13.78.52,1.82.95,1.57,2.56Z"/><path class="cls-1" d="M163.06,597.52c-1.29-5.89-.03-10.97,1.04-15.89,2.88-13.34,7.76-26.03,12.64-38.76,3.65-9.52,7.7-18.81,12.5-27.72,12.17-22.56,25.71-44.24,42.41-63.84,10.27-12.05,20.54-24.12,32.31-34.73,15.6-14.05,31.04-28.35,48.81-39.73,9.58-6.14,19.01-12.61,29.07-17.85,9.04-4.71,17.81-10.09,27.48-13.57,1.65-.59,3.84-2.23,4.89-.26,1,1.89-1.69,2.45-2.98,3.21-18.73,11.09-36.16,24.01-53.26,37.43-29.21,22.92-54.91,49.27-77.7,78.54-15.41,19.79-29.18,40.6-41.25,62.59-2.52,4.59-6.48,9.13-8.19,13.57-3.78,9.83-8.95,18.95-12.94,28.62-3.11,7.53-6.86,14.8-10.39,22.15-.99,2.06-1.9,4.23-4.44,6.25Z"/><path class="cls-1" d="M429.05,348.18c17.39,5.59,33.75,13.09,49.39,22.88,12.25,7.67,24.26,15.58,35.92,24.07,6.84,4.98,12.98,10.78,19.35,16.34,7.78,6.79,15.35,13.73,22.37,21.27,21.19,22.78,40.41,47.03,55.14,74.58,6.09,11.39,12.34,22.75,16.64,34.94,3.74,10.58,8.58,20.84,9.77,32.27.33,3.17,2.31,6.14,2.29,9.56,0,1.4.24,2.77-1.48,3.2-1.51.38-2.02-.91-2.54-1.91-2.9-5.61-5.94-11.16-8.58-16.89-6.67-14.48-13.99-28.62-21.9-42.44-10.46-18.29-22-35.88-34.44-52.91-13.72-18.79-29.08-36.21-45.7-52.34-18.39-17.84-38.25-34.1-59.62-48.4-5.18-3.47-10.72-6.55-14.77-11.59-.95-1.19-2.77-1.97-4.34-2.33-6.9-1.6-11.97-6.26-17.5-10.31Z"/><path class="cls-1" d="M387.12,284.53c-5.9-13.62-10.6-27.36-17.15-40.4-9.41-18.75-21.49-35.48-35.77-50.8-12.83-13.77-27.8-24.77-43.05-35.61-9.64-6.84-20.81-10.62-30.5-17.04-7.81-5.17-16.81-7.52-25.22-10.24-21.77-7.04-44.35-10.33-67.17-3.94-1.24.35-2.31,1.27-3.52,1.8-1.21.53-2.48.9-4.62,1.66,2.95-6.17,7.41-9.57,12.54-12.03,12.42-5.96,25.64-7.54,39.24-6.43,15.83,1.29,30.96,5.44,45.71,11.27,25.07,9.91,47.35,24.27,67.23,42.34,10.82,9.83,20.71,20.5,28.79,32.85,2.4,3.66,5.46,7.04,7.75,10.87,12.23,20.49,22.24,41.85,25.13,65.91.39,3.24.43,6.53.62,9.8Z"/><path class="cls-1" d="M130.04,519.22c-1.52-5.65-.57-11,.43-16.18,3.19-16.49,10.1-31.72,17.64-46.53,2.39-4.7,6.29-9.25,8.9-13.77,2.85-4.93,5.75-9.91,9.06-14.54,18.18-25.46,40.72-46.34,67.31-62.75,9.57-5.91,19.72-10.82,29.84-15.81,19.47-9.61,39.98-15.16,60.98-19.41,9.71-1.96,19.62-2.74,29.82-1.85-50.56,11.95-96.84,32.11-136.54,66.37-39.6,34.17-65.15,77.91-87.44,124.46Z"/><path class="cls-1" d="M322.12,608.36c-2.12-4.48-2.92-10.11-3.69-15.76-.5-3.65-1.13-7.26-.23-10.9.82-3.32-1.54-5.91-1.77-9.15-1.24-17.01-.6-33.94,1.15-50.85,2.42-23.4,6.65-46.42,14.31-68.73,5.25-15.29,10.81-30.46,18.14-44.9,8.18-16.12,17.42-31.61,28.62-45.85.71-.91,1.23-2.91,2.82-1.92,1.39.86.5,2.39-.2,3.55-2.53,4.21-4.26,8.79-7.8,12.56-1.86,1.98-2.76,5.56-3.95,8.33-6.54,15.23-12.28,30.81-17.94,46.39-9.52,26.23-14.85,53.51-18.29,81.06-2.27,18.13-2.55,36.49-2.34,54.83.14,12.65,1.11,25.28,2.1,37.82,1.28,16.24,4.97,32.29,7.61,48.42.13.82.25,1.65.26,2.47.02,1.14.32,2.54-1.08,3.04-1.51.55-2.17-.9-2.51-1.84-2.96-8.18-8-15.39-9.81-24.22-1.3-6.35-4.02-12.51-5.32-18.99-.3-1.49-.64-2.92-.07-5.36Z"/><path class="cls-1" d="M694.62,197.47c-2.48,2.07-5.03,2.29-7.67,2.4-14.31.59-28.61,1.22-42.92,1.83-27.43,1.19-54.13,6.67-80.57,13.72-34.55,9.21-66.12,24.88-96.26,43.82-11.88,7.47-22.69,16.24-33.37,25.21-3.42,2.88-7.8,4.56-10.42,8.43-.49.72-1.43.94-2.18.24-.75-.69-.5-1.52-.01-2.25,1.3-1.93,2.34-4.14,4-5.7,9.16-8.61,16.75-18.81,26.74-26.55,9.65-7.48,18.89-15.62,29.54-21.61,11.04-6.21,21.47-13.41,33.17-18.61,11.87-5.27,23.69-10.54,36.02-14.61,2.37-.78,4.67-1.83,7.27-1,2.6.84,2.32-2.46,4.58-3.02,12.93-3.21,25.92-6.19,39.09-8.11,21.01-3.07,42.14-3.41,63.27-1.17,10.06,1.07,20.06,2.65,29.71,6.98Z"/><path class="cls-1" d="M409.77,277.35c-1.76-3.62-.05-5.69.79-7.6,11.24-25.57,27.81-47.47,46.9-67.63,8.57-9.05,17.92-17.26,27.71-24.87,6.49-5.05,13.58-9.64,20.19-14.41,7.88-5.68,16-10.82,24.38-15.49,22.67-12.63,46.38-19.18,72.18-10.03,3.35,1.19,6.23,3.16,9.11,5.13,1.2.81,3.01,1.88,2.39,3.4-.79,1.96-2.9.98-4.46.75-3.78-.55-7.52-1.42-11.32-1.84-18.27-2-35.3,2.18-51.49,10.49-14.98,7.68-29.02,16.88-42.9,26.35-30.81,21.03-57.23,46.66-79.67,76.4-4.58,6.08-8.86,12.38-13.83,19.35Z"/><path class="cls-1" d="M328.91,44.88c12.86,5.63,20.85,15.85,28.95,25.74,16.25,19.84,29.04,41.76,38.03,65.83,5.43,14.54,9.58,29.52,11.81,44.8,4.19,28.65,3.3,57.18-5.72,85.05-.72,2.22-1.4,4.45-2.31,6.59-.91,2.13-2.08,4.15-3.56,6.19.64-4.44.87-8.91,1.31-13.34.45-4.59.58-9.21,2.65-13.69,1.1-2.37-.45-5.86-.36-8.83.66-20.56-1.09-40.86-5.27-61.04-4.54-21.92-12.66-42.43-22.5-62.38-6.75-13.69-14.26-26.9-22.47-39.79-5.34-8.39-11.35-16.37-16.13-25.12-1.65-3.02-3.66-5.88-4.44-10.01Z"/><path class="cls-1" d="M362.94,313.85c-5.26-1.19-10.53-2.35-15.78-3.58-21.52-5.05-43.12-5.45-64.96-1.96-21.21,3.39-40.24,12.05-58.74,22.39-11.24,6.28-20.7,14.93-31.09,22.34-1.24.88-2.64,2.91-4.22,1.45-1.36-1.26-.08-3.21.65-4.62,5.74-11.06,13.38-20.67,23.48-27.95,5.86-4.23,12.09-7.98,18.42-11.61,12.64-7.26,26.01-11.68,40.04-14.27,28.61-5.28,56.38-2.5,82.77,10.39,3.46,1.69,6.71,3.82,10.06,5.74-.21.56-.42,1.12-.63,1.68Z"/><path class="cls-1" d="M429.25,332.33c5.03-3.43,10.72-3.86,15.89-4.51,31.62-3.98,62.8-1.64,93.08,8.7,17.79,6.08,35.07,13.29,50.07,25.1,3.32,2.61,6.01,5.7,8.78,8.77.73.81,1.95,1.8,1.12,3-.74,1.08-2.18.66-3.28.43-6.55-1.39-12.63-4.17-18.75-6.77-28.38-12.04-57.32-22.27-87.76-27.87-17.98-3.31-36.17-4.3-54.35-5.45-1.43-.09-3.02.39-4.81-1.41Z"/><path class="cls-1" d="M259.49,215.53c11.65-.04,22.71,2.98,33.53,6.93,13.02,4.75,25.52,10.65,36.77,18.81,8.35,6.06,17.44,11.29,24.36,19.08,6.58,7.4,14.38,13.74,19.61,22.32.63,1.04,2.09,2.23.68,3.48-1.15,1.02-2.16-.3-3.03-.93-10.67-7.69-21.22-15.53-32.36-22.56-8.3-5.24-16.89-9.96-25.53-14.61-17.12-9.23-35.53-15.42-53.32-23.09-3.21-1.38-6.34-2.95-9.42-4.59-1.11-.59-2.66-1.33-2.39-2.87.32-1.87,2.13-1.9,3.61-1.95,2.49-.09,4.99-.02,7.49-.02Z"/><path class="cls-1" d="M433.45,307.28c.3-2.88,2.44-4.39,4.04-6.21,5.18-5.91,11.07-11.07,17.18-15.99,10.98-8.84,23.16-15.71,36.31-20.62,14.74-5.5,29.82-9.86,45.78-10.11,5.38-.08,10.59.61,15.8,1.82,1.76.41,3.49,1.11,3.58,2.86.08,1.56-1.72,2.34-3.14,2.77-7.77,2.33-15.48,4.98-23.38,6.76-28.91,6.53-56.29,16.91-81.93,31.81-3.44,2-6.86,4.03-10.38,5.89-1.1.58-2.47.66-3.85,1.01Z"/><path class="cls-1" d="M643.53,408.26c5.07.36,10.04.6,14.98,1.12,3.79.4,6.19-.75,7.81-4.45,2.03-4.62,4.71-8.95,7.41-13.97,2.34,5.63,4.83,10.27,5.59,15.55.4,2.77,2.09,3.94,4.84,3.94,3.66,0,7.32.04,10.97.24,1.27.07,2.94.39,3.16,1.9.18,1.27-1.29,1.79-2.3,2.33-2.63,1.42-5.21,3-7.96,4.15-3.37,1.41-3.81,3.65-2.81,6.8,1.6,5.07,3.07,10.18,4.52,15.29.16.58-.12,1.29-.29,2.68-4.67-3.75-9.17-6.97-13.19-10.7-4.21-3.92-7.93-4.27-12.61-.7-3.26,2.49-7.23,4.07-10.93,5.95-1.07.55-2.27,2.08-3.5.68-1.06-1.22.61-1.88,1.09-2.83,2.23-4.49,4.23-9.1,6.35-13.65.67-1.45,1.16-2.91-.28-4.08-4.19-3.41-8.46-6.73-12.86-10.23Z"/><path class="cls-1" d="M0,415.72c5.97.32,11.13.14,16.12.98,5.28.89,7.09-2.26,8.4-6.04,1.04-3.01,2.19-5.92,3.78-8.66.59-1.02,1.24-2.15,2.61-1.97,1.2.16,1.27,1.45,1.58,2.34.98,2.83,2.21,5.63,2.7,8.55.85,4.96,3.31,7.04,8.45,6.85,4.41-.17,8.86.56,13.41.9-.44,2.2-2.14,2.68-3.35,2.96-3.06.71-5.26,2.76-7.85,4.09-4.57,2.36-4.9,5.04-3.27,9.24,1.44,3.71,2.4,7.6,3.59,11.41.34,1.07,1.23,2.22-.13,3.12-1.18.77-2.23.07-3.16-.69-4.01-3.25-8.14-6.36-11.97-9.82-2.69-2.43-5.06-2.52-8.06-.67-3.96,2.44-8.13,4.57-12.22,6.81-1.29.71-2.7,1.82-4.14.63-1.78-1.47.11-2.7.67-3.89,1.6-3.41,3.33-6.76,5.1-10.09,2.8-5.27,2.43-6.01-2.94-9.13-3.04-1.77-6.46-3.2-9.33-6.9Z"/><path class="cls-1" d="M569.47,93.97c-3.17-4.68,1.11-7.25,2.16-10.59.58-1.86,1.88-3.51,2.9-5.22,1.59-2.65,1.01-4.63-1.57-6.32-3.3-2.17-6.48-4.53-10.7-7.5,5.31-1.39,9.55-1.07,13.65-.33,4.53.81,7.2-.57,8.98-4.87,1.9-4.58,4.41-8.9,6.87-13.74,3.29,4.15,4.32,9.18,4.56,13.48.3,5.31,3.24,5.9,6.71,6.35,4.65.59,9.55-.37,14.16,2.88-3.76,1.99-7.36,3.97-11.03,5.81-1.95.98-3.61,2.26-3.05,4.57,1.67,6.84,3.57,13.62,5.6,21.22-5.81-4.74-11.22-8.83-16.23-13.36-3.32-3-3.49-3.26-8.56-.38-4.77,2.71-9.6,5.32-14.45,8Z"/><path class="cls-1" d="M321.99,701.84c6,0,10.96-.05,15.9.02,3.9.05,6.73-.44,7.87-5.35,1.06-4.55,3.86-8.7,6.25-13.8,2.69,4.74,3.71,9.16,4.92,13.48,1.82,6.52,3.09,7.47,9.73,7.24,3.15-.11,6.31.05,9.47.12.85.02,1.76.26,2,1.15.28,1.04-.72,1.41-1.42,1.77-3.25,1.67-6.52,3.3-9.81,4.89-3.37,1.63-4.58,4-3.17,7.69,1.77,4.66,2.76,9.48,2.33,15-5.51-2.19-8.96-6.59-13.25-9.72-3.41-2.49-6.01-2.62-9.41-.37-4.73,3.13-9.8,5.64-15.82,6.73,1.64-5.34,4.17-9.79,6.89-14.11,1.86-2.95,1.67-5.02-1.48-6.96-3.58-2.21-6.89-4.84-11-7.77Z"/><path class="cls-1" d="M372.14,437.24c4.62-1.5,8.56.36,12.04-1.61,3.47-1.97,2.4-6.73,6.02-9.75,1.25,7.73,3.89,13.73,13.36,11.49-.45,1.25-.5,1.94-.77,2.05-5.77,2.22-8.1,5.78-4.88,11.77.53.98.46,2.48-.6,3.21-1.3.89-2.04-.59-2.93-1.19-2.55-1.71-4.35-4.56-8.05-4.43-2.4.08-3.95,1.1-5.58,2.68-1.39,1.34-3.26,2.19-5.87,2.45,2.2-6.09,9.85-12.84-2.75-16.66Z"/><path class="cls-1" d="M238.97,178.21c-1.08.59-2.22,1.08-3.21,1.79-3.54,2.52-6.42,5.3-3.99,10.22.62,1.26.62,2.67-.81,3.52-1.12.67-2.01-.22-2.56-.93-4.42-5.64-9.06-3.88-13.88-.63-1.14.77-2.58,2.33-3.94,1-1.16-1.13.37-2.4.94-3.51q3.29-6.42-4.68-13.65c9.54,2.53,14.63-1.07,17.17-9.58,2.61,7.55,5.35,14.23,14.96,11.78Z"/><path class="cls-1" d="M575.12,582.34c-4.87-1.54-7.15-5.8-11.41-6.42-4.37-.63-6.48,4.43-10.94,4.46.19-1.46-.11-3.26.64-4.24,4.22-5.42,1.61-8.6-3.29-11.23-.39-.21-.64-.68-1.21-1.31,1.44,0,2.61-.2,3.69.03,5.91,1.25,9.45-1.15,11.1-6.83.31-1.07.95-2.45,2.23-2.38,1.38.07,1.66,1.67,1.77,2.69.62,5.32,3.17,8.14,8.83,7.56.92-.09,2.11.26,2.39,1.37.1.4-.52,1.33-.97,1.47-7.23,2.13-5.37,6.93-3.55,11.77.27.73.36,1.53.7,3.06Z"/><path class="cls-1" d="M390.51,0c.94,8.28,3.17,14.48,12.88,12.58-1.76,3.94-7.22,3.29-6.96,7.39.2,3.2,1.52,6.32,2.49,10.03-3.44-.49-5.32-2.65-7.26-4.41-2.92-2.65-5.64-3.18-8.78-.46-.98.85-2.29,1.34-3.44,1.99-.92.52-1.86.8-2.73-.04-.93-.91-.36-1.82.11-2.7,1.81-3.4,4.94-6.7-.1-10.19-1.1-.76-.14-2.72,1.05-2.54,7.08,1.08,8.17-4.76,10.74-8.91.35-.56.77-1.07,1.99-2.74Z"/><path class="cls-1" d="M438.25,96.23c-.83,11.26,6.55,10.82,14.04,11.36-9.93,2.47-9.26,9.05-6.68,15.67-1.99,1.35-2.54-.05-3.11-.57-4.74-4.28-9.56-6.57-15.18-1.41-.72.66-1.82,1.02-2.74.27-.92-.75-.7-1.78-.28-2.75.4-.91.69-1.92,1.28-2.7,2.44-3.19,1.62-5.4-1.8-7.15-1.39-.71-2.58-1.82-4.04-3.55,9.54,3.96,13.76-2.25,18.51-9.18Z"/><path class="cls-1" d="M710.66,158.67c.79-.1,1.62-.43,2.35-.28,5.27,1.13,8.56-.98,10.27-5.96.31-.9.59-2.11,1.77-2.16,1.39-.07,2.08,1.15,2.37,2.22,1.27,4.62,3.43,7.77,8.99,7.1,1.4-.17,2.68,1.86.96,2.55-7.71,3.1-4.6,8.08-2.72,12.99.4,1.05.57,2.2,1.01,4.01-2.57-2.03-4.82-3.44-6.61-5.29-3.94-4.07-7.89-3.86-12.23-.78-.94.67-2.05,2.07-3.48.76-.89-.81-.66-1.93-.08-2.74,3.56-4.99,2.81-8.9-3.94-11.43.44-.33.89-.66,1.33-.98Z"/><path class="cls-1" d="M74.32,220.35c1.04,8.47,4.17,13.74,13.49,11.64-1.98,4.31-7.34,3.51-7.59,7.84-.2,3.43,2.63,6.36,1.98,9.84-1.53.45-2.21-.48-2.85-1.13-4.84-4.96-9.95-6.93-15.94-1.8-.88.75-2.11,1.35-3.04.04-.68-.96,0-1.89.53-2.74.27-.42.45-1.01.83-1.23,5.68-3.14,2.97-5.51-.6-7.99-1.21-.84-2.62-3.07.1-2.93,7,.37,8.92-4.54,11.24-9.34.2-.41.6-.73,1.84-2.2Z"/><path class="cls-1" d="M612.02,237.69c.96,10.21,5.23,14.93,14.74,13.48-1.04.58-2.05,1.25-3.13,1.74-4.18,1.89-7.87,3.93-4.67,9.51.54.94.59,2.34-.7,3.08-1.27.73-2.23.08-2.99-.92-3.09-4.08-6.7-3.94-10.64-1.35-.96.63-1.98,1.19-2.99,1.75-.91.5-1.86.74-2.8.07-1.39-1-.48-2.14-.02-3.09,1.62-3.33,4.59-6.56-.39-9.76-.91-.58-.53-2.77.89-2.6,7.71.88,9.33-5.27,12.68-11.89Z"/><path class="cls-1" d="M272.65,499.18c1.72,3.66,2.67,6.9,4.57,9.43,2.63,3.52,7.37-.02,11.01,2.69-2.73,1.44-5.33,2.71-7.84,4.14-2.56,1.46-3.22,3.44-.71,5.49,2.17,1.77,2.43,4.15,3.12,7.07-3.5-.6-5.53-2.94-7.64-4.66-3.19-2.6-5.75-3.18-9.09-.33-1.66,1.42-3.47,3.22-6.39,3.01-.93-3.73,3.29-5.17,3.77-8.54.71-5.02-4.47-4.28-5.82-8.13,9.14,2.57,12.69-3.29,15.04-10.18Z"/><path class="cls-1" d="M111.12,581.37c1.62.18,3.25.31,4.86.56,4.42.71,7.85-.06,9.09-5.16.35-1.45.73-3.75,2.73-3.69,2.08.05,2.28,2.38,2.27,3.85-.02,4.23,3.22,5.43,6.07,6.81,2.51,1.22,3.45,2.25.51,3.85-2.89,1.57-1.92,3.87-1.38,6.08.44,1.76,1.54,3.79-.3,5.03-1.75,1.19-3.12-.79-4.12-1.83-3.23-3.36-6.39-3.49-10.09-.79-1.33.97-3.02,2.57-4.86.73-2-2.01.43-2.85,1.31-3.9,2.77-3.33,2.4-5.71-1.67-7.56-1.63-.74-3-2.03-4.49-3.08.02-.3.04-.59.06-.89Z"/><path class="cls-1" d="M131.56,109.09c-5.88,1.49-5.34,5.07-4.46,9.47-4.12-2.82-7.71-5-11.95-.52-.34-3.69,1.96-6.35-.38-8.64,2.19-1.31,4.4-2.58,6.55-3.94,1.48-.92,2.2-.72,2.87,1.04,1.1,2.88,4.04,1.5,7.36,2.59Z"/><path class="cls-1" d="M416.3,623.12c3.4-1.49,7.53,0,8-4.61.03-.3.72-.69,1.15-.76,1.02-.16,5.77,6.9,5.13,7.68-.84,1.02-.92,2.01-.7,3.22.27,1.52-.96,2.65-1.92,1.88-3.63-2.9-6.49.39-10.01,1.03.82-3.19,3.8-6.44-1.64-8.45Z"/><path class="cls-1" d="M794.18,317.75c.68-3.94,3.34-7.31-2.27-9.55,2.84-.29,4.64.19,6.28-.99,1.4-1,2.16-4.3,3.84-3.01,2.16,1.65,3.94,4.36,3.95,7.55,0,2.03-.98,4.13.71,6.27-4.15-2.05-7.97-5.01-12.52-.27Z"/><path class="cls-1" d="M304.19,48.03c6.33,3.06,5.72,8.63,6.64,14.45-3.98-2.47-7.66-5.86-12.64-.1.53-4.49,1.81-7.09.66-9.72,2.55-.93,4.7-2.34,5.34-4.63Z"/><path class="cls-1" d="M501.23,709.01c-3.37-2.04-6.21-4.33-10.19-1.79-1.34.86-2.17-.44-1.72-1.84.55-1.72.22-3.49.39-5.05.28-2.73,4.23-2.79,6.18-4.87,1.11-1.18,2.12,1.66,2.69,3.15,1.25,3.33.9,7.09,2.66,10.4Z"/><path class="cls-1" d="M140.16,351.16c2.15-3.25,1.14-7.32,4.44-9.97,1.52-1.22,2.87-1.1,4.46-.84-.56,2.72,5.89,1.86,2.97,5.85-.33.45-.34,1.3-.22,1.9.97,4.78-.04,5.42-3.73,2.05-2.55-2.33-4.7,1.71-7.92,1.01Z"/><path class="cls-1" d="M562.53,411.39c.75,4.29-.5,4.97-3.68,2.55-.8-.61-1.65-.99-2.75-.76-.89.18-1.46,1.37-2.54.79-.06-.03.33-.67.22-.85-1.42-2.36-3.83-4.95-.13-7.03,1.46-.82,1.76-4.2,4.55-2.42,2.93,1.87,5.29,4.05,4.32,7.73Z"/></g></svg>