<?xml version="1.0" encoding="UTF-8"?><svg id="Capa_2" xmlns="http://www.w3.org/2000/svg" viewBox="0 0 445.81 332.52"><defs><style>.cls-1{fill:#44699e;stroke-width:0px;}</style></defs><g id="Capa_1-2"><path class="cls-1" d="M262.95,312.39c-11.34-.19-19.13-6.86-27.9-12.08-1.49-.89-1.42-2.13-1.42-3.42-.02-30.33-.02-60.65-.04-90.98,0-1.83.3-3.22,2.47-3.64,7.19-1.39,14.37-3.21,21.73-1.49,13.79,3.22,27.53,4.03,41.4.33,7.07-1.88,14.21-1.04,21.24.73,4.34,1.09,8.68,2.22,13.05,3.17,5.13,1.12,6.96-.69,5.95-5.72-1.79-8.95-3.67-17.89-5.38-26.85-.63-3.3-1.88-6.55-4.92-7.65-4.32-1.56-6.93-4.71-9.75-7.86-.76-.85-1.8-1.48-2.79-2.07-5.72-3.43-6.43-5.97-3.29-12.26,3.79-7.59,7.66-15.14,11.41-22.75,2.13-4.32.7-6.66-4.16-6.73-8.16-.11-16.33-.08-24.49-.01-5.52.05-6.85,2.23-4.43,7.15,3.81,7.76,7.74,15.45,11.48,23.24,2.58,5.37,1.56,8.35-3.29,11.17-1.42.83-2.67,1.96-4.03,2.9-2.02,1.4-2.76,5.72-4.88,4.86-2.41-.98-.74-4.77-.6-7.2.29-5.22-1.94-6.57-6.79-6.43-10.32.28-20.66,0-30.99.11-11.55.12-12.33-2.05-11.59,11.32.05.88.73,2.08-.66,2.54-1.05.35-1.92-.18-2.67-.93-2.36-2.36-4.6-4.84-7.12-7.01-3.02-2.6-4.05-5.62-3.94-9.64.29-10.82.13-21.66.13-32.49,0-6.34,0-6.63,6.51-6.33,13.31.61,20.1-8.53,21.44-16.73.43-2.6.33-5.32.23-7.97-.09-2.32.21-3.78,3.12-3.62,2.29.13,3.88-1.33,3.81-3.68-.06-2.07-1.51-3.43-3.64-3.32-3.23.18-3.3-1.71-3.28-4.11.07-10.33-.06-20.66.09-30.99.04-2.95-.7-4.05-3.87-4.1-3.29-.06-3.37,1.54-3.35,3.97.06,10.33.02,20.66-.02,30.99,0,1.9.58,4.24-2.7,4.15-2.48-.07-4.3.85-4.16,3.73.12,2.55,1.86,3.32,4.07,3.44,1.33.08,2.41,0,2.85,1.9,2.83,12.25-7.44,22.36-19.39,19.07-1.93-.53-1.68-1.78-1.69-3.02-.05-4.67.06-9.33-.06-14-.06-2.42.07-4.21,3.3-4.06,2.08.09,3.45-1.4,3.46-3.51,0-2.1-1.27-3.55-3.43-3.47-3.16.12-3.35-1.63-3.33-4.11.1-10,.01-20,.04-29.99,0-2.72.44-5.21-3.88-5.12-4.07.08-3.53,2.42-3.53,4.93,0,10-.03,20-.03,29.99,0,2.18.39,4.5-3.06,4.32-2.42-.13-3.91,1.37-3.83,3.64.08,2.33,1.9,3.49,4.16,3.4,2.29-.09,2.81,1.01,2.77,3.02-.1,5-.12,10-.06,15,.02,2.01-.57,2.84-2.79,3.04-12.88,1.18-18.18-3.63-18.27-16.58-.02-2.86.07-4.8,3.8-4.6,2.06.11,3.18-1.54,3.07-3.75-.1-2-1.14-3.23-3.11-3.13-3.7.18-3.81-2.03-3.78-4.82.1-10,.01-20,.05-29.99,0-2.45.22-4.42-3.45-4.47-3.88-.06-3.78,1.98-3.76,4.68.07,10.16.03,20.33.03,30.49,0,1.98.39,4.17-2.81,4-2.28-.12-4.08.91-4.13,3.33-.06,2.66,1.86,3.84,4.29,3.78,2.35-.06,2.72,1.09,2.68,3.07-.05,2.99-.25,6.06.28,8.97,1.97,10.71,9.7,16.23,22.81,16.13,3.72-.03,5.28.65,5.18,4.86-.28,12.16-.08,24.33-.06,36.49,0,1.68-.06,3.22-1.34,4.63-5.85,6.45-11.49,12.72-21.77,10.89-3.59-.64-5.18-.94-5.12-5.05.12-8.3,1.25-16.79-1.17-24.85-2.74-9.17-4.58-18.33-4.03-27.94.22-3.81-2.06-5.84-5.77-6.12-2.15-.16-4.34-.19-6.49.01-3.45.32-5.74,2.29-5.49,5.84.7,10.15-1.74,19.73-4.32,29.41-2.08,7.79-.98,15.91-.9,23.88.04,3.82-1.16,4.95-4.87,4.72-2.52-.15-4.35-.54-5.83-2.83-1.82-2.84-4.39-5.09-7.66-6.15-2.6-.84-3.08-2.49-2.96-4.93.12-2.39.7-4.54,1.78-6.66,3.78-7.4,7.56-14.81,11.19-22.28,2.29-4.72.92-6.89-4.3-6.94-8-.08-16-.05-23.99,0-5.93.04-7.19,2-4.61,7.3,3.78,7.77,7.73,15.46,11.51,23.24,1.47,3.04,2.71,8-.05,9-6.77,2.44-9.13,10.02-16.05,12-3.15.9-4.48,4.23-5.11,7.5-1.65,8.47-3.39,16.93-4.99,25.41-1.44,7.63-.04,8.89,7.7,6.81,12.29-3.3,24.55-5.93,37.32-2.36,9.83,2.74,19.79,2.31,29.62-.12,8.93-2.21,17.73-2.06,26.65.06,2.72.65,3.89,1.46,3.88,4.48-.11,29.99-.05,59.99-.08,89.98,0,1.26.57,2.85-.88,3.65-8.31,4.59-15.24,11.81-25.84,11.94-9.63.12-16.45,5.62-21.16,13.75-2.66,4.6-1.65,6.28,3.62,6.29,18.33.02,36.66,0,54.99.01,18.5,0,36.99.02,55.49-.01,4.98,0,6.01-1.59,3.65-6.03-4.06-7.63-10.27-13.58-18.94-13.73ZM300.48,120.62h15.62c-2.8,5.61-5.3,10.61-7.81,15.63-1.72-.32-1.86-1.69-2.22-2.61-1.7-4.41-5.23-8.04-5.59-13.02ZM314.46,162.73h-12.6c3.8-3.58,7.25-3.69,12.6,0ZM247.97,157.34c.4-1.94,2.11-1.2,3.28-1.22,4.82-.09,9.64-.04,14.45-.04,4.49,0,8.97-.09,13.46.05,1.27.04,3.24-.99,3.68,1.28.39,1.98-.53,3.58-2.19,4.66-1.3.85-2.81.86-4.33.86-7.31-.03-14.62-.03-21.93,0-1.86,0-3.64-.08-5.09-1.5-1.18-1.15-1.64-2.55-1.33-4.08ZM227.54,162.74c-3.27,0-5.87,0-8.47,0,2.59-5.81,3.52-5.89,8.47,0ZM175.19,109c-.04-1.18.08-2.46,1.71-2.5,1.57-.03,1.91,1.11,1.85,2.37-.38,8.07.6,15.93,3.62,23.47.66,1.65-.14,2.1-1.56,2.11-3.13.02-6.26,0-10.17,0,3.7-8.61,4.88-16.92,4.56-25.46ZM169.98,143.71c.44-1.89,1.61-1.84,2.92-1.85,2.83-.03,5.66.05,8.49-.01,1.98-.05,2.4.93,2.56,2.74.71,7.75.68,7.85-7.41,7.86-6.45,0-8.08-2.28-6.57-8.73ZM183.44,161.61c.05,2.5-4.14,1.24-6.33,1.15-2.33-.09-6.66,1.68-6.64-1.38.01-3.2,4.41-.36,6.41-1.82,2.32,1.36,6.48-1.67,6.56,2.05ZM130.19,121.21c.5-.41.73-.77.96-.77,4.76.04,9.54-.68,14.28.35-1.1,5.73-4.84,10.21-7.38,16.54-3.01-6.18-5.45-11.19-7.86-16.12ZM143.79,162.46c-.94,1.03-2.13.38-3.17.43-2.72.11-5.45.04-8.58.04,3.73-3.87,7.96-3.9,11.75-.47ZM124.56,170.11c27.98.09,55.96.05,83.94.05,36.97,0,73.95,0,110.92,0,1.5,0,3.06-.2,4.48.15,2.53.62,3.2,2.81,3.13,5.06-.1,3.23-2.7,1.63-4.08,1.63-33.31.09-66.62.07-99.93.08-32.98,0-65.95.04-98.93-.1-1.71,0-5.13,2.1-5.12-2.19,0-3.58,2.13-4.7,5.58-4.69ZM204.68,194.03c-6.88-1.64-13.93-1.57-20.81.05-11.37,2.68-22.59,2.96-34.05.17-10.22-2.49-20.48-1.4-30.54,1.62-1.37.41-2.81.57-4.42.89-.22-3.81,1.19-7.09,1.62-10.51.21-1.62,1.21-2.17,2.79-2.1,2.16.08,4.33.02,6.5.02,65.65,0,131.31.08,196.96-.14,5.17-.02,7.18,1.59,7.25,6.39.03,1.98,1.39,3.78.68,6.3-7.21-1.36-14.27-3.81-21.74-3.65-4,.08-8.02-.06-11.92.98-11.84,3.15-23.64,2.84-35.51.03-7.04-1.67-14.29-1.73-21.3.05-11.9,3.02-23.64,2.76-35.51-.08ZM222.73,203.73c3.5-.02,3.59,1.83,3.57,4.42-.06,14.33-.03,28.66-.02,42.99,0,13.83.03,27.66-.02,41.49,0,2.14.83,4.63-3.15,4.69-3.67.05-3.53-1.88-3.53-4.35.02-28.32.01-56.65,0-84.97,0-2.2-.3-4.24,3.14-4.26ZM173.52,325.79c2.87-4.51,6.87-6.43,11.28-6.55,9.07-.25,16.61-3.79,23.85-8.9,10.82-7.64,17.34-7.7,28.2-.18,7.4,5.13,15.02,8.93,24.31,9.06,4.41.06,8.08,2.49,11.88,6.57h-99.51Z"/><path class="cls-1" d="M157.8,276.73s-.08,0-.13,0c-.62-16.81-1.28-33.62-1.85-50.44-.2-5.92-1.02-6.81-7.08-6.81-12.83.01-25.66-.03-38.49.09-2.9.03-4.7-.59-5.11-3.84-2-15.84-4.11-31.66-6.17-47.49-2.13-16.32-4.28-32.63-6.38-48.95-.48-3.7-1.73-6.17-6.17-6.15-26.99.11-53.99.11-80.98.05-4.18,0-5.86,1.92-5.34,5.85,3.14,23.4,6.38,46.78,9.48,70.18,1.59,12.03,3.83,24.06,4.25,36.14.78,22.65-1.45,45.26-2.5,67.89-.53,11.48-1.04,22.96-1.43,34.45-.14,3.95,2.49,5.88,5.48,4.21,2.18-1.22,1.52-3.49,1.62-5.4,1.28-24.78,2.61-49.57,3.73-74.36.15-3.23,1.04-4.22,4.28-4.16,11.49.19,23,.19,34.49.01,3.09-.05,3.93.73,3.76,3.9-.82,15.8-1.38,31.62-2.03,47.43-.38,9.32-.8,18.64-1.15,27.96-.09,2.37-.24,4.73,3.31,4.92,3.35.18,3.85-1.71,3.95-4.33.14-3.83.45-7.65.61-11.48.92-21.47,1.86-42.94,2.66-64.41.11-2.88.74-4.12,3.95-4,6.99.25,14,.15,20.99.02,2.47-.05,3.57.55,3.6,3.28.06,5.33.54,10.64.76,15.97.83,19.97,1.62,39.95,2.45,59.92.11,2.73.18,5.5,4.3,4.99,3.9-.48,3.07-3.3,2.98-5.66-.98-24.8-1.94-49.6-3.14-74.39-.17-3.56,1-4.15,4.12-4.1,9.33.16,18.66.07,27.99.05q10.76-.01,11.2,10.56c1.01,22.96,2.11,45.92,3.01,68.89.13,3.33.95,5.09,4.58,4.62,3.33-.44,2.64-3,2.56-5-.67-16.81-1.43-33.62-2.17-50.42ZM53.76,240.89c-3.83,0-7.66,0-11.49,0v.03c-5.83,0-11.66-.1-17.49.05-2.55.06-3.54-.72-3.54-3.37.05-30.59-6.66-60.43-10.09-90.64-.86-7.59-1.94-15.17-3.02-22.73-.37-2.64.09-4.07,3.24-3.94,12.68.55,9.76-2.55,11.56,10.24,3.35,23.86,6.46,47.76,9.65,71.65.84,6.26,1.78,12.52,2.33,18.81.36,4.17,2.26,5.9,6.36,5.83,6.33-.11,12.66.05,18.99-.06,2.51-.04,3.4.74,3.55,3.4.6,10.74.71,10.73-10.05,10.73ZM46.65,219.6c-3.68.05-4.8-1.24-5.23-4.65-2.37-18.78-4.93-37.54-7.42-56.3-1.51-11.36-2.85-22.74-4.59-34.06-.52-3.36.06-4.42,3.56-4.33,7.98.21,15.97.07,23.96.07,8.15,0,16.31.1,24.46-.05,2.84-.05,4.12.72,4.51,3.75,3.9,30.13,7.89,60.25,12,90.35.57,4.17-.64,5.32-4.83,5.25-15.47-.24-30.95-.24-46.43-.02ZM148.79,231.97c-.26,8.97-.03,8.95-9,8.93-10.16-.03-20.32,0-30.48,0v.02c-11.49,0-22.99-.11-34.48.07-3.07.05-3.95-.81-3.98-3.89-.09-10.29-.22-10.29,10.11-10.28,20.82,0,41.64.12,62.46-.07,4.08-.04,5.49.98,5.37,5.23Z"/><path class="cls-1" d="M194.77,28.31c8.53.03,12.74-6.25,9.29-14.04-1.68-3.79-3.57-7.5-5.54-11.16-2.16-4-5.23-4.14-7.47-.23-2.06,3.6-3.86,7.36-5.58,11.14-3.71,8.19.29,14.26,9.3,14.29ZM194.6,12.63c1.02,2.9,4.9,4.97,2.29,8.06-.99,1.17-3.99,1.3-5-.25-2.14-3.3,2.11-5.04,2.71-7.8Z"/><path class="cls-1" d="M251.13,28.32c8.92,0,13.06-6.13,9.49-14.28-1.67-3.8-3.58-7.51-5.63-11.13-2.24-3.94-5.25-3.88-7.43.11-1.99,3.65-3.88,7.36-5.57,11.15-3.51,7.86.6,14.14,9.15,14.14ZM251.54,11.89c.47,3.55,4.84,5.57,1.93,8.89-.96,1.09-4.17,1.21-4.95-.4-1.51-3.11,1.27-5.35,3.02-8.49Z"/><path class="cls-1" d="M222.89,28.32c8.83.03,13-6.33,9.3-14.29-1.68-3.61-3.54-7.14-5.3-10.71-.84-1.69-1.78-3.28-4.01-3.16-1.9.11-2.9,1.41-3.67,2.97-1.84,3.72-3.81,7.39-5.52,11.17-3.52,7.8.58,13.99,9.19,14.02ZM222.71,12.69c1.61,2.56,4.66,4.7,2.64,7.81-.91,1.4-4.04,1.45-4.94.05-1.99-3.1,1.46-5.14,2.3-7.86Z"/><path class="cls-1" d="M445.66,119.51c.62-4.51-.68-6.27-5.29-6.28-26.99-.06-53.98,0-80.97-.05-3.65,0-5.48,1.48-5.93,5.15-1.07,8.74-2.36,17.46-3.51,26.19-3.1,23.57-6.21,47.14-9.23,70.72-.41,3.21-1.68,4.42-5.1,4.36-12.99-.22-25.99-.16-38.98-.12-5.82.02-6.51.9-6.69,6.7-.53,17.48-1.15,34.96-1.72,52.44-.53,16.32-1.07,32.63-1.54,48.95-.06,2.1-.41,4.47,2.98,4.63,3.14.14,4.14-1.48,4.21-4.21.04-1.67.04-3.33.11-5,.89-23.63,1.84-47.26,2.6-70.9.11-3.32,1.19-4.13,4.37-4.08,10.99.19,22,.34,32.98-.05,4.66-.17,5.42,1.34,5.21,5.6-1.19,23.95-2.13,47.92-3.01,71.89-.1,2.61-1.65,6.47,3.36,6.7,4.75.21,3.59-3.51,3.72-6.03.68-13.14,1.19-26.29,1.77-39.43.51-11.65,1.08-23.29,1.49-34.94.09-2.65.81-3.8,3.74-3.72,7.16.21,14.33.17,21.49,0,2.7-.07,3.34.95,3.39,3.45.16,6.99.6,13.98.89,20.96.75,18.31,1.47,36.61,2.23,54.92.11,2.57.31,5.04,4.07,4.85,3.59-.18,3.38-2.61,3.29-4.92-1.01-24.96-2.02-49.92-3.18-74.88-.14-3.08.24-4.48,3.82-4.42,11.66.2,23.33.2,34.98-.01,3.29-.06,3.72,1.2,3.82,4.04.87,24.97,1.9,49.93,2.86,74.89.11,2.76-.09,5.49,4.04,5.27,4.18-.22,3.09-3.27,3.02-5.5-.54-17.15-1.21-34.29-1.84-51.43.03,0,.06,0,.09,0-.31-6.65-.71-13.31-.92-19.96-.37-11.99-1.58-24.05-.09-35.95,4.18-33.32,8.94-66.56,13.47-99.83ZM365.27,240.89c-20.95,0-41.9-.1-62.84.1-4.01.04-5.49-.82-5.36-5.13.32-11.17-.83-8.88,8.92-9.02,9.97-.14,19.95-.03,29.92-.03,11.64,0,23.28.13,34.91-.08,3.31-.06,4.21.91,4.21,4.17,0,9.98.13,9.98-9.76,9.98ZM375.93,219.52c-7.99,0-15.98-.17-23.96.07-3.69.11-4.52-1.21-4.04-4.63,2.58-18.75,5.01-37.52,7.5-56.28,1.51-11.36,3.21-22.69,4.44-34.08.38-3.53,1.69-4.37,4.98-4.34,15.97.14,31.95.14,47.92,0,3.32-.03,4.13.64,3.65,4.17-4,29.11-7.77,58.25-11.56,87.39-1,7.67-.91,7.69-8.47,7.7-6.82.01-13.65,0-20.47,0ZM427.52,199.83c-1.65,12.04-3.67,24.05-2.92,36.26.22,3.57-.66,5.12-4.6,4.87-5.48-.35-10.99-.09-16.49-.09v.02c-6,0-12-.1-18,.04-2.58.06-3.57-.8-3.48-3.43.42-13.22-2.11-10.42,10.14-10.68,4.33-.09,8.67-.1,13-.04,3.41.05,5.22-1.48,5.67-4.89,3.02-23.08,6.07-46.16,9.13-69.24,1.27-9.56,2.76-19.09,3.79-28.68.33-3.1,1.45-3.73,4.31-3.74,9.82-.03,10.07-.11,8.8,9.87-2.97,23.26-6.16,46.48-9.34,69.71Z"/></g></svg>