<?xml version="1.0" encoding="UTF-8"?><svg id="Capa_1" xmlns="http://www.w3.org/2000/svg" viewBox="0 0 1068 980"><defs><style>.cls-1{fill:#000;stroke-width:0px;}</style></defs><path class="cls-1" d="M1068,365v473c-1.08,1.06-.81,2.47-.96,3.76-7.68,65.98-56.16,119.88-121.07,134.47-6.61,1.49-13.32,2.53-19.98,3.78H142c-1.08-1.02-2.49-.8-3.78-.95-64.75-7.72-117.44-53.87-133.52-117.2C2.71,854.01,1.55,845.96,0,838c0-157.67,0-315.33,0-473,2.14-1.82,4.15-3.81,6.42-5.44,47.14-33.7,94.26-67.41,141.53-100.93,3.86-2.74,5.21-5.55,5.18-10.21-.21-32.65-.19-65.29-.08-97.94.07-20.56,6.46-39,19.83-54.72,18.27-21.49,41.87-30.63,69.82-30.5,56.8.26,113.6.06,170.4.13,3.48,0,6.36-.74,9.24-2.82,22.15-15.96,44.43-31.75,66.62-47.67,9.34-6.7,19.51-11.4,30.8-13.65,1.43-.28,3.04-.12,4.23-1.26C530.67,0,537.33,0,544,0c.59.27,1.15.7,1.76.8,12.92,2.16,24.32,7.61,34.9,15.28,21.3,15.45,42.85,30.56,64.2,45.95,3.27,2.35,6.52,3.4,10.57,3.39,57.48-.11,114.96-.12,172.45-.07,49.07.04,86.13,36.91,86.31,85.89.12,32.49.11,64.98-.06,97.47-.02,4.16,1.34,6.59,4.69,8.97,40.21,28.53,80.35,57.16,120.4,85.91,9.71,6.97,19.97,13.23,28.78,21.42ZM533.77,965.29c124,0,247.99,0,371.99,0,2.83,0,5.67-.01,8.5-.06,76.25-1.31,138.52-62.82,138.82-139,.58-146.16.19-292.32.17-438.48,0-1.39.77-3.36-.8-4.05-1.49-.65-2.61,1.1-3.78,1.93-57.25,40.81-114.48,81.65-171.71,122.5-101.03,72.11-202.08,144.19-303.07,216.35-25.63,18.31-53.71,18.55-79.37.27-36.63-26.11-73.23-52.27-109.84-78.4-96.28-68.73-192.56-137.45-288.84-206.17-25.63-18.29-51.27-36.58-76.92-54.85-1.04-.74-2.06-2.21-3.4-1.63-1.47.63-.72,2.36-.76,3.59-.11,3.16-.05,6.33-.05,9.5,0,140.5,0,280.99,0,421.49,0,3.5,0,7,.12,10.5.77,23.8,6.85,46.21,19.34,66.45,28.19,45.67,69.29,69.79,123.12,69.96,125.49.39,250.99.12,376.49.13ZM534.01,80.1c-39.5,0-78.99,0-118.49,0-58.66,0-117.32.04-175.98-.02-16.57-.02-31.65,4.49-44.65,14.82-18.75,14.9-27.15,34.56-27.11,58.48.17,104.32.12,208.64-.05,312.97,0,5.28,1.61,8.34,5.88,11.38,71.02,50.47,141.92,101.12,212.84,151.74,39.19,27.97,78.33,56,117.55,83.93,19.04,13.55,40.56,13.61,59.61.23,12.95-9.1,25.75-18.41,38.63-27.6,97.64-69.68,195.27-139.36,292.97-208.96,3.16-2.25,4.49-4.59,4.48-8.57-.11-105.15-.05-210.31-.11-315.47-.03-43.02-30.12-72.93-73.09-72.93-97.49,0-194.98,0-292.47,0ZM914.22,368.01c0,30.15,0,60.29.03,90.44,0,1.23-.79,2.87.69,3.63,1.21.62,2.11-.72,3-1.35,42.15-30.08,84.27-60.21,126.46-90.23,3.11-2.22,2.65-3.27-.1-5.23-41.9-29.86-83.75-59.79-125.64-89.67-1.14-.81-2.31-2.6-3.8-1.7-1.36.82-.61,2.75-.61,4.18-.03,29.98-.03,59.96-.03,89.94ZM152.72,273.45c-1.96,1.3-3.34,2.16-4.66,3.1-41.23,29.41-82.41,58.88-123.73,88.17-3.9,2.77-3.38,3.96.1,6.43,38.03,27.01,75.97,54.16,113.94,81.25,4.54,3.24,9.14,6.41,14.35,10.06v-189.02ZM444.34,65.01h178.72c-1.25-1.14-1.77-1.73-2.39-2.17-17.76-12.67-35.3-25.65-53.34-37.9-20.9-14.2-46.77-13.8-67.57.54-12.06,8.31-23.88,16.98-35.81,25.49-6.16,4.39-12.3,8.81-19.6,14.04Z"/><path class="cls-1" d="M625.91,256.04c1.71,1.14,3.58.6,5.32.61,10.33.09,20.68-.22,30.99.2,12.32.5,21.55,10.03,21.86,22.35.26,10.33.27,20.67-.03,30.99-.25,8.69-4.51,15.52-12.3,19.17-4.06,1.9-4.63,4.23-4.62,8.03.09,49.83.06,99.66.06,149.49,0,19.8-11.21,31.07-30.89,31.07-68.5,0-136.99,0-205.49,0-19.29,0-30.74-11.43-30.75-30.82-.04-50.16-.05-100.33.07-150.49,0-3.62-.88-5.5-4.33-7.16-7.99-3.86-12.27-10.74-12.54-19.58-.32-10.16-.28-20.34-.03-30.49.31-12.53,9.64-22.08,22.22-22.57,10.15-.39,20.33-.11,30.49-.2,1.57-.02,3.31.64,4.93-.88-1.45-1.2-2.85-2.33-4.21-3.49-9.63-8.22-11.73-18.69-6-30.05,2.81-5.58,6.78-10.29,11.29-14.54,8.8-8.27,18.66-15.09,29.38-20.58,18.59-9.52,36.08-5.24,48.48,11.59,5.87,7.97,9.66,16.99,13.38,27.39,3.32-8.4,6.05-15.8,10.25-22.5,6.7-10.67,15.08-19.07,28.23-21.11,7.17-1.11,14.02.26,20.45,3.23,13.59,6.28,25.69,14.75,36.03,25.63,3.8,4,7.03,8.46,8.97,13.71,4.06,11,1.5,20.21-7.57,27.68-1.23,1.01-2.96,1.51-3.64,3.31ZM526.75,417.65h.02c0-26.66-.07-53.31.08-79.97.02-3.96-.82-5.8-5.21-5.4-4.13.38-8.37.46-12.48-.04-5.79-.71-8.67,1.37-11.18,6.82-6.69,14.49-17.87,24.72-32.92,30.34-5.7,2.13-10.54-.46-11.03-5.56-.42-4.32,1.95-6.74,5.8-8.22,9.29-3.57,16.76-9.49,22.2-17.86.94-1.44,3-2.91,1.98-4.72-.86-1.52-3.07-.66-4.67-.67-19.66-.05-39.32.1-58.98-.13-4.31-.05-5.61.99-5.59,5.49.17,49.98.1,99.96.11,149.94,0,10.64,4.91,15.53,15.63,15.54,30.32.02,60.64-.06,90.96.09,4.02.02,5.42-.88,5.39-5.2-.2-26.82-.1-53.64-.1-80.47ZM541.39,417.49h.02c0,26.81.08,53.63-.09,80.44-.03,4.04.9,5.42,5.19,5.4,30.31-.18,60.62-.07,90.93-.11,9.84-.01,15.12-5.19,15.13-15.14.07-50.29.02-100.59.12-150.88,0-3.59-.86-4.94-4.71-4.91-20.65.17-41.3.14-61.95,0-4.56-.03-4.15,1.42-2.19,4.47,5.68,8.86,13.4,15.09,23.13,19.01,5.52,2.23,7.39,7.5,4.17,11.53-2.67,3.34-6.19,3.47-9.96,2-15.86-6.19-27.1-17.27-33.91-32.74-1.46-3.33-3.23-4.45-6.68-4.26-4.65.25-9.34.29-13.98-.03-4.12-.28-5.35,1.07-5.32,5.28.19,26.64.1,53.29.1,79.94ZM564.65,271.34c6.72,8.87,10.08,17.79,11.01,27.56.44,4.63.57,9.3.72,13.95.11,3.33,1.1,4.9,5.01,4.87,25.96-.18,51.92-.04,77.88-.1,6.99-.02,10.04-3.15,10.1-10.08.07-8.32.07-16.64.04-24.96-.03-8.51-2.81-11.23-11.5-11.24-29.12-.01-58.25,0-87.37,0-1.47,0-2.95,0-5.88,0ZM501.01,272.51c-.99-1.37-2.06-1.16-3.02-1.16-30.16-.01-60.32-.05-90.48.03-6.33.02-9.47,3.31-9.55,9.67-.1,8.83-.09,17.66,0,26.49.07,6.92,3.2,10.04,10.16,10.06,25.66.05,51.32-.05,76.98.09,3.68.02,5.03-1.12,5.04-4.79.03-14.48,1.61-28.6,10.87-40.39ZM514.73,256.67c1.83,0,3.68-.17,5.49.03,3.97.45,4.95-1.07,3.94-4.85-1.7-6.43-2.74-13.04-4.66-19.39-2.95-9.73-6.56-19.25-13.28-27.17-7.09-8.36-15-10.66-24.97-6.36-12.97,5.6-24.28,13.74-33.65,24.41-1.3,1.48-2.4,3.21-3.34,4.95-3.39,6.3-2.38,10.43,3.61,14.45,4.32,2.9,9.18,4.69,14.15,6.12,17.22,4.94,34.89,6.86,52.7,7.8ZM554.92,256.67c4.13-.39,11.77-.91,19.35-1.88,14.03-1.8,28.06-3.88,40.99-10.06,10.15-4.85,11.79-11.01,4.82-19.82-9.69-12.23-22.25-20.93-36.7-26.66-8.08-3.2-15.36-.95-21.4,5.25-2.57,2.63-4.67,5.62-6.51,8.8-6.23,10.8-9.51,22.64-12.12,34.69-2.1,9.68-2.04,9.7,11.58,9.69ZM533.23,317.61v.02c8.33,0,16.66.01,24.99,0,1.79,0,3.89.39,3.63-2.61-.72-8.27-.18-16.68-3.23-24.66-4.3-11.28-14.24-18.77-25.22-18.82-11.27-.05-21.26,7.46-25.55,19.04-2.78,7.51-2.58,15.36-3.05,23.17-.2,3.26,1,3.98,3.93,3.93,8.16-.13,16.33-.05,24.49-.05Z"/></svg>