<?xml version="1.0" encoding="UTF-8"?><svg id="Capa_2" xmlns="http://www.w3.org/2000/svg" viewBox="0 0 444.17 400.38"><defs><style>.cls-1{fill:#44699e;stroke-width:0px;}</style></defs><g id="Capa_1-2"><path class="cls-1" d="M97.7,7.94c6.12,59.58,21.17,117.19,33.84,175.36,12.46-58.11,27.07-115.68,33.45-175.03.81-.22,1.32.85,2.01,1.47,7.27,6.59,15.6,11.2,24.86,14.47,14.89,5.27,29.64,10.94,44.43,16.48,3.28,1.23,3.29,4.44,3.75,7.09,2.11,12.13,4.09,24.29,5.98,36.46,5.18,33.38,9.96,66.83,15.54,100.14,3.59,21.44.23,42.06-4.85,62.72-6.27,25.52-13.06,50.9-20.28,76.17-1.06,3.7-2.5,5.5-6.45,4.96-3.29-.45-6.66-.4-9.92-.98-3.21-.58-4.09.47-3.93,3.61.65,13.48.69,27,1.83,40.44.66,7.81-2.41,13.14-7.94,17.72-8.97,7.43-19.66,10.32-30.97,11.1-8.48.59-16.98.25-25.44-.91-9.33-1.28-17.16-8.49-19.5-18.37-2.38-10.07-3.21-20.37-5.02-30.69-.96,10.12-2.03,20.22-2.87,30.35-.95,11.4-6.77,17.57-18.09,18.88-14.01,1.63-27.91,1.75-41.45-3.06-4.43-1.57-8.55-3.72-12.3-6.54-6.26-4.7-9.92-10.08-9.54-18.86,2.04-47.77,3.43-95.58,5.02-143.37.4-12.19-.86-24.29-1.93-36.41-.07-.78-.42-1.53-1.39-2.28-.4,5.46-.87,10.91-1.2,16.37-.83,13.64-1.59,27.28-2.38,40.91-.57,9.86-3.51,19.31-5.03,29-.2,1.3-.79,2.82-.36,3.89,3.98,9.74,1.82,19.75,1.41,29.65-.43,10.32-1.31,20.62-1.88,30.93-.15,2.62-1.21,4.38-3.56,5.5-10.88,5.19-21.38,3.01-31.78-1.57-2.31-1.02-1.68-3.03-1.63-4.76.41-15.49.88-30.98,1.34-46.47.9-29.98,1.97-59.95,2.63-89.94.26-12.06,2.01-23.86,4.38-35.62.5-2.49.66-4.94.68-7.43.26-24.49.49-48.98,1.87-73.45.79-13.97,4.77-27.14,9.37-40.18.85-2.42,2.58-4.19,5.22-4.97,17.41-5.16,33.95-12.69,51.04-18.72,8.18-2.89,14.91-8.46,21.05-14.04ZM216.2,185.42c-3.99,22.43-3.56,44.9-1.89,67.44,3.51-10.46,6.82-20.88,9.24-31.52.82-3.62,3-8.36,1.43-11.11-4.48-7.84-5.55-16.6-8.77-24.82ZM207.52,90.93c-7.66-3.77-14.03-6.89-20.39-10.04-1.12-.56-2.23-1.04-2.84.57-1.66,4.38-4.09,8.5-5.1,13.69,9.31-1.39,18.1-2.7,28.33-4.22Z"/><path class="cls-1" d="M444.17,212.98c-.12,22.02-3.99,42.52-6.63,63.13-4.02,31.35-8.28,62.67-12.44,94.01-.31,2.31-.7,4.61-.94,6.92-.92,8.72-3.98,11.88-12.66,13.2-5.83.88-11.77.95-17.4-.38-14.7-3.47-29.61-4.26-44.6-4.6-8.36-.19-8.44-.57-9.5-8.7-4.4-33.65-9.06-67.26-13.36-100.92-2.7-21.11-6.76-42.09-6.53-63.5.24-22.45,4-44,15.95-63.54,2.25-3.68,4.02-7.67,5.14-11.87.69-2.59,1.57-3.92,4.82-2.9,3.77,1.19,7.81,1.73,11.77,2.04,4.01.31,7.47.45,7.86,5.81.19,2.66,3.13,2.88,4.76,1.93,7.95-4.63,15.59-4.3,23.57,0,2.67,1.44,4.92-.3,5.11-3.48.19-3.3,2.03-3.82,4.91-4.12,4.94-.5,9.85-1.5,14.72-2.55,2.28-.49,3.33.06,3.96,2.29,1.64,5.8,4.4,11.15,7.39,16.33,11.13,19.24,13.9,40.33,14.1,60.91Z"/><path class="cls-1" d="M437.07,31.72c.11,15.16-.16,30.29-2.82,45.28-1.21,6.79-4.12,12.98-6.39,19.39-3.62,10.21-7.34,20.39-6.74,31.48.11,2.07-.68,3.02-2.72,3.33-5.42.82-10.82,1.8-16.24,2.65-1.14.18-2.55.3-2.92-1.18-1.18-4.77-4.39-3.49-7.48-2.62-.8.22-1.69.4-2.32.88-4.85,3.69-9.4,3.28-14.61.18-3.18-1.9-7.81-4.69-9.99,1.97-.46,1.4-1.96.96-3.08.84-2.15-.22-4.31-.44-6.44-.8-3.6-.62-7.69-.51-10.65-2.27-3.56-2.12-1.09-6.63-1.58-10.06-1.17-8.13-3.08-16.13-6.43-23.51-7.05-15.54-8.94-31.95-9.4-48.65-.34-12.48.01-24.98-.21-37.47-.08-4.37,1.84-5.44,5.82-6.16,7.32-1.32,12.03,1.68,16.12,7.23,11.31,15.36,19.83,32.3,28.41,49.22,1.23,2.42,1.62,6.52,4.52,6.63,3.47.13,3.63-4.26,4.89-6.73,8-15.73,15.94-31.48,26.15-45.94,1.63-2.3,3.41-4.53,5.33-6.59,3.69-3.96,11.6-5.3,16.56-3.13,2.17.95,2.2,2.69,2.2,4.55,0,7.16,0,14.32,0,21.48Z"/><path class="cls-1" d="M160.11,16.37c-.61,3.46-1.12,7.59-2.1,11.59-.79,3.24-3,4.83-6.38,3.21-4.92-2.37-10.09-4.16-14.59-7.51-3.19-2.38-7.4-2.44-10.63.04-4.59,3.53-9.85,5.48-15.01,7.77-3.27,1.45-5.24-.02-6.08-2.94-2.6-9.02-3.05-17.94,1.88-26.49.91-1.57,1.85-2.21,3.58-1.53,5.7,2.24,11.68,3.89,15.68,9.16,2.08,2.74,8.26,2.5,10.38-.33,3.97-5.31,10-6.89,15.72-9.08,1.41-.54,2.64-.24,3.34,1.24,2.12,4.53,3.92,9.16,4.21,14.87Z"/></g></svg>