<?xml version="1.0" encoding="UTF-8"?><svg id="Capa_2" xmlns="http://www.w3.org/2000/svg" viewBox="0 0 381.72 380.61"><defs><style>.cls-1{fill:#44699e;stroke-width:0px;}</style></defs><g id="Capa_1-2"><path class="cls-1" d="M278.57,229.23c-11.3-5.29-22.49-10.81-33.81-16.04-6.68-3.09-9.55-2.18-14.27,3.58-4.11,5.02-8.3,9.98-12.4,15.01-2.57,3.14-5.63,3.73-9.34,2.26-27.27-10.82-48.27-28.98-63.37-54.07-2.22-3.69-1.77-6.83,1.4-9.81,3.88-3.66,7.57-7.53,10.16-12.25,1.89-3.43,3.13-6.97,1.45-10.93-5.11-12.1-10.07-24.27-15.31-36.32-2.7-6.22-6.55-8.2-13.23-7.18-8.85,1.36-16.51,5.15-22.3,12.13-10.8,13.02-13.15,28-9.76,44.17,3,14.34,10.83,26.24,18.89,38.16,25.7,37.98,59.93,64.18,104.22,76.86,5.13,1.47,10.3,2.7,15.72,2.53,12.49-.26,24.02-3.55,33.79-11.56,8.45-6.93,13.79-15.69,14-26.99.08-4.41-1.71-7.6-5.86-9.54Z"/><path class="cls-1" d="M336.92,66.49C293.88,15.52,237.59-5.91,171.27,1.39c-51.68,5.69-94.68,29.35-125.59,70.99C-2.45,137.22-6.51,206.39,31.37,277.81c1.57,2.96,1.77,5.35.7,8.39-3.86,10.99-7.51,22.05-11.25,33.09-6.83,20.14-13.67,40.27-20.82,61.32,1.99-.56,2.93-.8,3.85-1.09,31.08-9.86,62.17-19.71,93.23-29.62,3.37-1.08,6.26-1.7,9.88.16,35.53,18.31,73.27,25.62,112.77,19.22,75.15-12.18,127.26-54.14,151.52-126.31,21.62-64.29,9.49-124.59-34.34-176.48ZM290.76,309.77c-53.42,40.61-124.28,44.22-180.83,9.1-2.44-1.51-4.44-1.52-6.97-.7-17.26,5.56-34.55,11.01-51.83,16.49-1.56.49-3.14.92-5.83,1.71,6.31-18.67,12.16-36.34,18.32-53.89,1.22-3.48,1.05-5.87-1.14-9-44.64-63.89-33.32-153.45,25.81-205.28,55.07-48.28,133.98-53.36,194.89-12.55,88.58,59.35,92.47,189.59,7.57,254.13Z"/></g></svg>